<mxfile host="app.diagrams.net" modified="2020-11-09T16:34:50.982Z" agent="5.0 (Macintosh; Intel Mac OS X 10_15_3) AppleWebKit/537.36 (KHTML, like Gecko) Chrome/86.0.4240.183 Safari/537.36" etag="yLbMgcQpFKN7GZaDz81M" version="13.9.2" type="github">
  <diagram id="pkoObrhF3buKix8fzUiH" name="Page-1">
    <mxGraphModel dx="946" dy="523" grid="1" gridSize="10" guides="1" tooltips="1" connect="1" arrows="1" fold="1" page="1" pageScale="1" pageWidth="827" pageHeight="1169" math="0" shadow="0">
      <root>
        <mxCell id="0" />
        <mxCell id="1" parent="0" />
        <mxCell id="-usDBHCM0vj4eszsBzei-2" value="laboratory" style="rounded=0;whiteSpace=wrap;html=1;" vertex="1" parent="1">
          <mxGeometry x="340" y="200" width="90" height="50" as="geometry" />
        </mxCell>
        <mxCell id="-usDBHCM0vj4eszsBzei-3" value="" style="endArrow=none;html=1;" edge="1" parent="1">
          <mxGeometry width="50" height="50" relative="1" as="geometry">
            <mxPoint x="300" y="230" as="sourcePoint" />
            <mxPoint x="340" y="230" as="targetPoint" />
          </mxGeometry>
        </mxCell>
        <mxCell id="-usDBHCM0vj4eszsBzei-4" value="" style="endArrow=none;html=1;" edge="1" parent="1">
          <mxGeometry width="50" height="50" relative="1" as="geometry">
            <mxPoint x="430" y="230" as="sourcePoint" />
            <mxPoint x="470" y="230" as="targetPoint" />
          </mxGeometry>
        </mxCell>
        <mxCell id="-usDBHCM0vj4eszsBzei-6" value="hold" style="rhombus;whiteSpace=wrap;html=1;" vertex="1" parent="1">
          <mxGeometry x="220" y="210" width="80" height="40" as="geometry" />
        </mxCell>
        <mxCell id="-usDBHCM0vj4eszsBzei-7" value="belonging" style="rhombus;whiteSpace=wrap;html=1;" vertex="1" parent="1">
          <mxGeometry x="470" y="210" width="100" height="40" as="geometry" />
        </mxCell>
        <mxCell id="-usDBHCM0vj4eszsBzei-8" value="student" style="rounded=0;whiteSpace=wrap;html=1;" vertex="1" parent="1">
          <mxGeometry x="600" y="200" width="90" height="50" as="geometry" />
        </mxCell>
        <mxCell id="-usDBHCM0vj4eszsBzei-10" value="" style="endArrow=none;html=1;" edge="1" parent="1">
          <mxGeometry width="50" height="50" relative="1" as="geometry">
            <mxPoint x="570" y="229.5" as="sourcePoint" />
            <mxPoint x="600" y="230" as="targetPoint" />
          </mxGeometry>
        </mxCell>
        <mxCell id="-usDBHCM0vj4eszsBzei-11" value="University" style="rounded=0;whiteSpace=wrap;html=1;" vertex="1" parent="1">
          <mxGeometry x="100" y="205" width="90" height="50" as="geometry" />
        </mxCell>
        <mxCell id="-usDBHCM0vj4eszsBzei-14" value="" style="endArrow=none;html=1;" edge="1" parent="1">
          <mxGeometry width="50" height="50" relative="1" as="geometry">
            <mxPoint x="190" y="229.5" as="sourcePoint" />
            <mxPoint x="220" y="230" as="targetPoint" />
          </mxGeometry>
        </mxCell>
        <mxCell id="-usDBHCM0vj4eszsBzei-16" value="Room Number" style="ellipse;whiteSpace=wrap;html=1;" vertex="1" parent="1">
          <mxGeometry x="220" y="110" width="80" height="60" as="geometry" />
        </mxCell>
        <mxCell id="-usDBHCM0vj4eszsBzei-18" value="university&lt;br&gt;name" style="ellipse;whiteSpace=wrap;html=1;" vertex="1" parent="1">
          <mxGeometry x="100" y="280" width="86" height="50" as="geometry" />
        </mxCell>
        <mxCell id="-usDBHCM0vj4eszsBzei-19" value="Location" style="ellipse;whiteSpace=wrap;html=1;" vertex="1" parent="1">
          <mxGeometry x="100" y="130" width="86" height="50" as="geometry" />
        </mxCell>
        <mxCell id="-usDBHCM0vj4eszsBzei-20" value="Professor" style="ellipse;whiteSpace=wrap;html=1;" vertex="1" parent="1">
          <mxGeometry x="344" y="130" width="86" height="50" as="geometry" />
        </mxCell>
        <mxCell id="-usDBHCM0vj4eszsBzei-21" value="name" style="ellipse;whiteSpace=wrap;html=1;" vertex="1" parent="1">
          <mxGeometry x="602" y="130" width="86" height="50" as="geometry" />
        </mxCell>
        <mxCell id="-usDBHCM0vj4eszsBzei-22" value="role" style="ellipse;whiteSpace=wrap;html=1;" vertex="1" parent="1">
          <mxGeometry x="477" y="130" width="86" height="50" as="geometry" />
        </mxCell>
        <mxCell id="-usDBHCM0vj4eszsBzei-23" value="student&lt;br&gt;id" style="ellipse;whiteSpace=wrap;html=1;" vertex="1" parent="1">
          <mxGeometry x="477" y="270" width="86" height="50" as="geometry" />
        </mxCell>
        <mxCell id="-usDBHCM0vj4eszsBzei-25" value="field" style="ellipse;whiteSpace=wrap;html=1;" vertex="1" parent="1">
          <mxGeometry x="340" y="270" width="86" height="50" as="geometry" />
        </mxCell>
        <mxCell id="-usDBHCM0vj4eszsBzei-27" value="major" style="ellipse;whiteSpace=wrap;html=1;" vertex="1" parent="1">
          <mxGeometry x="604" y="270" width="86" height="50" as="geometry" />
        </mxCell>
        <mxCell id="-usDBHCM0vj4eszsBzei-28" value="" style="endArrow=none;html=1;exitX=0.5;exitY=0;exitDx=0;exitDy=0;entryX=0.5;entryY=1;entryDx=0;entryDy=0;" edge="1" parent="1" source="-usDBHCM0vj4eszsBzei-23" target="-usDBHCM0vj4eszsBzei-7">
          <mxGeometry width="50" height="50" relative="1" as="geometry">
            <mxPoint x="440" y="290" as="sourcePoint" />
            <mxPoint x="490" y="240" as="targetPoint" />
          </mxGeometry>
        </mxCell>
        <mxCell id="-usDBHCM0vj4eszsBzei-29" value="" style="endArrow=none;html=1;exitX=0.5;exitY=0;exitDx=0;exitDy=0;entryX=0.5;entryY=1;entryDx=0;entryDy=0;" edge="1" parent="1" source="-usDBHCM0vj4eszsBzei-27" target="-usDBHCM0vj4eszsBzei-8">
          <mxGeometry width="50" height="50" relative="1" as="geometry">
            <mxPoint x="530" y="280" as="sourcePoint" />
            <mxPoint x="530" y="260" as="targetPoint" />
          </mxGeometry>
        </mxCell>
        <mxCell id="-usDBHCM0vj4eszsBzei-30" value="" style="endArrow=none;html=1;exitX=0.593;exitY=0.04;exitDx=0;exitDy=0;exitPerimeter=0;" edge="1" parent="1" source="-usDBHCM0vj4eszsBzei-25">
          <mxGeometry width="50" height="50" relative="1" as="geometry">
            <mxPoint x="344" y="300" as="sourcePoint" />
            <mxPoint x="394" y="250" as="targetPoint" />
          </mxGeometry>
        </mxCell>
        <mxCell id="-usDBHCM0vj4eszsBzei-31" value="" style="endArrow=none;html=1;exitX=0.5;exitY=0;exitDx=0;exitDy=0;" edge="1" parent="1" source="-usDBHCM0vj4eszsBzei-18">
          <mxGeometry width="50" height="50" relative="1" as="geometry">
            <mxPoint x="100" y="305" as="sourcePoint" />
            <mxPoint x="150" y="255" as="targetPoint" />
          </mxGeometry>
        </mxCell>
        <mxCell id="-usDBHCM0vj4eszsBzei-32" value="" style="endArrow=none;html=1;" edge="1" parent="1" target="-usDBHCM0vj4eszsBzei-19">
          <mxGeometry width="50" height="50" relative="1" as="geometry">
            <mxPoint x="145" y="200" as="sourcePoint" />
            <mxPoint x="160" y="265" as="targetPoint" />
          </mxGeometry>
        </mxCell>
        <mxCell id="-usDBHCM0vj4eszsBzei-33" value="" style="endArrow=none;html=1;entryX=0.5;entryY=1;entryDx=0;entryDy=0;exitX=0.5;exitY=0;exitDx=0;exitDy=0;" edge="1" parent="1" source="-usDBHCM0vj4eszsBzei-6" target="-usDBHCM0vj4eszsBzei-16">
          <mxGeometry width="50" height="50" relative="1" as="geometry">
            <mxPoint x="440" y="290" as="sourcePoint" />
            <mxPoint x="490" y="240" as="targetPoint" />
          </mxGeometry>
        </mxCell>
        <mxCell id="-usDBHCM0vj4eszsBzei-34" value="" style="endArrow=none;html=1;entryX=0.5;entryY=1;entryDx=0;entryDy=0;exitX=0.5;exitY=0;exitDx=0;exitDy=0;" edge="1" parent="1" source="-usDBHCM0vj4eszsBzei-2" target="-usDBHCM0vj4eszsBzei-20">
          <mxGeometry width="50" height="50" relative="1" as="geometry">
            <mxPoint x="270" y="220" as="sourcePoint" />
            <mxPoint x="270" y="180" as="targetPoint" />
          </mxGeometry>
        </mxCell>
        <mxCell id="-usDBHCM0vj4eszsBzei-35" value="" style="endArrow=none;html=1;entryX=0.5;entryY=1;entryDx=0;entryDy=0;exitX=0.5;exitY=0;exitDx=0;exitDy=0;" edge="1" parent="1" source="-usDBHCM0vj4eszsBzei-7" target="-usDBHCM0vj4eszsBzei-22">
          <mxGeometry width="50" height="50" relative="1" as="geometry">
            <mxPoint x="395" y="210" as="sourcePoint" />
            <mxPoint x="397" y="190" as="targetPoint" />
          </mxGeometry>
        </mxCell>
        <mxCell id="-usDBHCM0vj4eszsBzei-36" value="grade" style="ellipse;whiteSpace=wrap;html=1;" vertex="1" parent="1">
          <mxGeometry x="701" y="200" width="86" height="50" as="geometry" />
        </mxCell>
        <mxCell id="-usDBHCM0vj4eszsBzei-37" value="" style="endArrow=none;html=1;entryX=0;entryY=0.5;entryDx=0;entryDy=0;" edge="1" parent="1" target="-usDBHCM0vj4eszsBzei-36">
          <mxGeometry width="50" height="50" relative="1" as="geometry">
            <mxPoint x="690" y="225" as="sourcePoint" />
            <mxPoint x="530" y="240" as="targetPoint" />
          </mxGeometry>
        </mxCell>
        <mxCell id="-usDBHCM0vj4eszsBzei-38" value="1:N" style="text;html=1;strokeColor=none;fillColor=none;align=center;verticalAlign=middle;whiteSpace=wrap;rounded=0;" vertex="1" parent="1">
          <mxGeometry x="240" y="260" width="40" height="20" as="geometry" />
        </mxCell>
        <mxCell id="-usDBHCM0vj4eszsBzei-39" value="N:M" style="text;html=1;strokeColor=none;fillColor=none;align=center;verticalAlign=middle;whiteSpace=wrap;rounded=0;" vertex="1" parent="1">
          <mxGeometry x="530" y="250" width="40" height="20" as="geometry" />
        </mxCell>
        <mxCell id="-usDBHCM0vj4eszsBzei-40" value="N" style="text;html=1;strokeColor=none;fillColor=none;align=center;verticalAlign=middle;whiteSpace=wrap;rounded=0;" vertex="1" parent="1">
          <mxGeometry x="450" y="205" width="40" height="20" as="geometry" />
        </mxCell>
        <mxCell id="-usDBHCM0vj4eszsBzei-41" value="M" style="text;html=1;strokeColor=none;fillColor=none;align=center;verticalAlign=middle;whiteSpace=wrap;rounded=0;" vertex="1" parent="1">
          <mxGeometry x="540" y="205" width="40" height="20" as="geometry" />
        </mxCell>
        <mxCell id="-usDBHCM0vj4eszsBzei-42" value="1" style="text;html=1;strokeColor=none;fillColor=none;align=center;verticalAlign=middle;whiteSpace=wrap;rounded=0;" vertex="1" parent="1">
          <mxGeometry x="200" y="200" width="40" height="20" as="geometry" />
        </mxCell>
        <mxCell id="-usDBHCM0vj4eszsBzei-43" value="N" style="text;html=1;strokeColor=none;fillColor=none;align=center;verticalAlign=middle;whiteSpace=wrap;rounded=0;" vertex="1" parent="1">
          <mxGeometry x="280" y="200" width="40" height="20" as="geometry" />
        </mxCell>
      </root>
    </mxGraphModel>
  </diagram>
</mxfile>
